PathFileType   4   (X/Y/Z)
DataRate	CameraRate	NumFrames	NumMarkers	Units	OrigDataRate	OrigDataStartFrame	OrigNumFrames
120.0	120.0	10	37	mm	120.0	35	136
Frame#	Time	midhip	hip_r	hip_l	knee_r	knee_l	ankle_r	ankle_l	midasis	asis_r	asis_l	psis_r	psis_l	epicondLat_r	epicondLat_l	epicondMed_r	epicondMed_l	malleolusLat_r	malleolusLat_l	malleolusMedv_r	malleolusMedv_l	neck	subclavicle_r	subclavicle_l	sternalnotch	xyphoidprocess	thighwand_r	thighwand_l	upperleg1_r	upperleg1_l	upperleg2_r	upperleg2_l	shankwand_r	shankwand_l	lowerleg1_r	lowerleg1_l	toe_r	toe_l
 	 	X1	Y1	Z1	X2	Y2	Z2	X3	Y3	Z3	X4	Y4	Z4	X5	Y5	Z5	X6	Y6	Z6	X7	Y7	Z7	X8	Y8	Z8	X9	Y9	Z9	X10	Y10	Z10	X11	Y11	Z11	X12	Y12	Z12	X13	Y13	Z13	X14	Y14	Z14	X15	Y15	Z15	X16	Y16	Z16	X17	Y17	Z17	X18	Y18	Z18	X19	Y19	Z19	X20	Y20	Z20	X21	Y21	Z21	X22	Y22	Z22	X23	Y23	Z23	X24	Y24	Z24	X25	Y25	Z25	X26	Y26	Z26	X27	Y27	Z27	X28	Y28	Z28	X29	Y29	Z29	X30	Y30	Z30	X31	Y31	Z31	X32	Y32	Z32	X33	Y33	Z33	X34	Y34	Z34	X35	Y35	Z35	X36	Y36	Z36	X37	Y37	Z37

	35	0.41667	311.125	685.889	-225.221	305.264	691.125	-158.653	304.081	692.489	-284.469	270.152	382.727	-191.013	441.272	396.502	-295.949	196.867	59.979	-196.978	415.651	78.678	-300.569	369.113	756.591	-221.465	369.997	755.572	-127.468	368.229	757.610	-315.462	225.661	793.146	-203.778	222.394	786.334	-258.373	273.076	377.136	-140.908	433.151	394.650	-345.250	263.529	383.782	-239.627	461.109	397.907	-241.361	194.168	59.975	-163.587	402.235	80.221	-332.316	194.284	69.913	-222.986	414.074	84.775	-271.513	269.086	1141.763	-215.136	352.804	1094.300	-156.286	342.826	1097.513	-285.243	342.052	1084.502	-223.202	360.699	941.835	-227.431	288.659	458.111	-53.979	516.761	543.424	-347.824	323.804	520.738	-115.437	444.322	571.536	-283.677	323.978	439.811	-140.225	470.136	487.553	-275.419	209.615	157.751	-86.237	495.882	170.773	-356.870	224.979	212.887	-144.676	451.444	231.472	-323.868	292.234	37.942	-199.073	499.076	57.637	-320.237
	36	0.42500	317.785	684.948	-225.604	312.082	690.225	-158.994	310.786	691.466	-284.810	271.748	382.820	-190.968	449.114	395.605	-295.173	196.980	60.439	-197.331	439.299	76.431	-301.295	375.846	755.657	-221.927	376.814	754.731	-127.990	374.878	756.584	-315.864	232.396	792.204	-204.413	229.233	785.233	-258.983	275.028	377.181	-140.891	440.701	393.396	-344.410	264.858	384.386	-239.699	468.277	396.925	-240.923	194.176	60.431	-163.949	425.602	77.459	-332.943	194.469	70.430	-223.293	437.756	82.127	-272.151	276.218	1140.849	-215.753	360.017	1093.348	-156.922	349.834	1096.540	-285.951	349.162	1083.521	-223.908	367.717	940.864	-228.089	292.697	457.920	-54.118	523.156	542.180	-348.191	328.102	520.198	-115.788	450.737	570.325	-283.814	326.980	439.421	-140.736	476.858	486.487	-275.352	209.847	158.155	-86.442	514.281	172.980	-357.501	225.614	213.288	-144.878	466.983	231.012	-323.802	292.266	37.936	-199.145	523.588	58.933	-321.148
	37	0.43333	324.470	683.939	-225.974	318.939	689.270	-159.328	317.540	690.357	-285.144	273.457	382.948	-190.919	456.610	394.479	-294.343	197.116	60.937	-197.659	462.634	74.760	-302.050	382.637	754.640	-222.392	383.680	753.829	-128.512	381.593	755.451	-316.272	239.174	791.216	-205.066	236.132	784.071	-259.610	277.066	377.250	-140.871	447.932	391.929	-343.518	266.808	384.780	-240.083	475.051	395.554	-240.868	194.198	60.930	-164.286	448.651	75.257	-333.585	194.683	71.006	-223.584	461.220	80.103	-272.816	283.354	1139.833	-216.484	367.207	1092.233	-157.695	356.873	1095.472	-286.682	356.299	1082.478	-224.639	374.696	939.764	-228.902	296.763	457.718	-54.284	529.392	540.619	-348.422	331.688	519.891	-116.131	457.046	568.850	-283.961	330.101	439.075	-141.529	483.353	485.086	-275.454	210.100	158.626	-86.626	532.105	175.494	-358.190	226.358	213.767	-145.093	482.067	230.629	-323.875	292.296	37.927	-199.202	547.646	60.754	-322.104
	38	0.44167	331.208	682.862	-226.336	325.840	688.270	-159.657	324.344	689.171	-285.473	275.306	383.107	-190.866	463.790	393.155	-293.459	197.280	61.476	-197.946	485.550	73.686	-302.838	389.490	753.545	-222.866	390.605	752.873	-129.039	388.375	754.218	-316.693	246.027	790.186	-205.740	243.096	782.860	-260.259	279.208	377.345	-140.848	454.878	390.282	-342.574	268.993	384.899	-240.572	481.417	393.914	-240.614	194.241	61.479	-164.584	471.282	73.636	-334.249	195.042	71.591	-223.882	484.216	78.789	-273.491	290.510	1138.758	-217.215	374.276	1091.134	-158.587	364.012	1094.255	-287.422	363.466	1081.380	-225.401	381.650	938.587	-229.564	300.849	457.519	-54.471	535.497	538.787	-348.500	334.788	519.741	-116.461	463.071	567.115	-284.073	333.215	438.588	-142.504	489.547	483.353	-275.400	210.392	159.170	-86.779	549.302	178.308	-358.940	227.109	214.213	-145.205	496.680	230.422	-323.947	292.323	37.920	-199.243	571.162	63.092	-323.120
	39	0.45000	338.029	681.721	-226.700	332.789	687.231	-159.983	331.197	687.916	-285.800	277.323	383.291	-190.808	470.690	391.670	-292.520	197.479	62.060	-198.182	507.938	73.214	-303.662	396.411	752.377	-223.354	397.597	751.867	-129.574	395.224	752.888	-317.133	252.984	789.121	-206.437	250.129	781.614	-260.938	281.471	377.464	-140.817	461.581	388.494	-341.581	270.889	385.428	-240.990	487.359	391.976	-240.135	194.311	62.082	-164.832	493.390	72.607	-334.939	195.443	72.232	-224.130	506.640	78.234	-274.184	297.736	1137.612	-217.975	381.511	1090.063	-159.409	371.280	1093.016	-288.218	370.667	1080.229	-226.198	388.925	937.425	-230.172	304.952	457.330	-54.670	541.505	536.733	-348.423	338.836	519.311	-116.829	468.856	565.071	-283.959	336.390	438.049	-143.297	495.413	481.349	-275.103	210.740	159.790	-86.894	565.832	181.402	-359.741	227.911	214.697	-145.232	510.833	230.422	-323.880	292.351	37.918	-199.265	594.047	65.910	-324.207
	40	0.45833	344.951	680.520	-227.077	339.782	686.161	-160.310	338.087	686.602	-286.126	279.530	383.492	-190.746	477.356	390.066	-291.533	197.717	62.692	-198.357	529.688	73.326	-304.519	403.397	751.140	-223.860	404.660	750.812	-130.122	402.133	751.469	-317.597	260.060	788.033	-207.159	257.232	780.347	-261.651	283.873	377.603	-140.779	468.088	386.607	-340.545	273.111	386.104	-241.207	492.993	389.743	-239.731	194.416	62.743	-165.020	514.874	72.155	-335.654	195.788	73.008	-224.294	528.637	78.341	-275.023	304.948	1136.414	-218.827	388.824	1088.920	-160.174	378.585	1091.849	-289.040	377.901	1079.027	-227.022	396.378	936.281	-230.948	309.075	457.158	-54.874	547.450	534.516	-348.194	343.427	518.737	-117.146	474.537	562.796	-283.597	339.796	437.745	-143.715	501.063	479.143	-274.715	211.159	160.487	-86.965	581.664	184.743	-360.581	228.841	215.322	-145.223	524.475	230.648	-323.851	292.383	37.924	-199.268	616.214	69.150	-325.372
	41	0.46667	351.961	679.269	-227.472	346.811	685.066	-160.642	345.001	685.243	-286.458	281.943	383.700	-190.683	483.839	388.384	-290.510	197.998	63.370	-198.463	550.692	73.978	-305.395	410.442	749.838	-224.388	411.790	749.706	-130.687	409.093	749.969	-318.089	267.254	786.934	-207.909	264.408	779.076	-262.399	286.432	377.755	-140.735	474.452	384.662	-339.479	276.046	386.372	-241.366	498.415	387.370	-239.246	194.563	63.460	-165.140	535.633	72.244	-336.387	196.159	73.832	-224.388	550.166	79.078	-276.010	312.127	1135.183	-219.762	396.023	1087.716	-160.997	385.884	1090.625	-289.929	385.177	1077.775	-227.864	403.712	935.073	-231.773	313.232	457.001	-55.078	553.374	532.196	-347.829	347.729	518.212	-117.398	480.014	560.443	-283.207	343.444	437.505	-144.000	506.562	476.728	-274.228	211.668	161.259	-86.990	596.775	188.278	-361.436	229.876	215.973	-145.197	537.725	231.225	-323.942	292.422	37.938	-199.249	637.573	72.737	-326.611
	42	0.47500	359.021	677.981	-227.894	353.862	683.950	-160.985	351.921	683.852	-286.799	284.577	383.903	-190.623	490.197	386.661	-289.468	198.327	64.091	-198.496	570.848	75.099	-306.268	417.534	748.474	-224.939	418.979	748.548	-131.270	416.090	748.401	-318.609	274.550	785.837	-208.688	271.657	777.816	-263.180	289.167	377.910	-140.690	480.732	382.697	-338.404	279.452	386.513	-241.688	503.526	385.005	-238.544	194.758	64.233	-165.187	555.571	72.807	-337.117	196.623	74.687	-224.339	570.943	80.465	-277.019	319.441	1133.880	-220.781	403.230	1086.489	-161.839	393.154	1089.257	-290.920	392.501	1076.472	-228.730	410.905	933.764	-232.507	317.444	456.855	-55.280	559.319	529.837	-347.349	352.039	517.739	-117.643	485.442	558.142	-282.820	347.308	437.170	-144.362	511.939	474.204	-273.596	212.280	162.099	-86.967	611.155	191.934	-362.282	230.844	216.663	-145.018	550.502	232.109	-324.068	292.473	37.960	-199.210	658.033	76.580	-327.912
	43	0.48333	366.057	676.667	-228.347	360.923	682.817	-161.345	358.838	682.442	-287.156	287.443	384.086	-190.574	496.486	384.932	-288.434	198.706	64.852	-198.453	590.060	76.588	-307.105	424.665	747.057	-225.516	426.216	747.335	-131.873	423.113	746.778	-319.159	281.920	784.754	-209.494	278.979	776.579	-263.987	292.100	378.056	-140.652	486.986	380.747	-337.344	282.683	386.455	-241.536	509.877	382.420	-237.749	195.009	65.058	-165.159	574.596	73.754	-337.815	197.122	75.627	-224.189	590.720	82.421	-278.072	326.899	1132.501	-221.848	410.483	1085.245	-162.678	400.558	1087.739	-291.818	399.869	1075.122	-229.638	418.140	932.362	-233.024	321.739	456.709	-55.481	565.333	527.502	-346.781	356.615	517.261	-117.889	489.959	555.259	-282.090	351.162	436.753	-144.430	517.375	471.798	-272.747	213.017	163.000	-86.900	624.801	195.617	-363.089	231.868	217.406	-144.707	562.577	233.204	-324.143	292.538	37.988	-199.149	677.501	80.578	-329.253
	44	0.49167	373.047	675.340	-228.836	367.990	681.668	-161.729	365.748	681.031	-287.536	290.553	384.238	-190.546	502.766	383.225	-287.434	199.138	65.651	-198.335	608.240	78.322	-307.863	431.828	745.596	-226.115	433.495	746.070	-132.493	430.160	745.122	-319.737	289.337	783.696	-210.324	286.371	775.375	-264.809	295.255	378.178	-140.632	493.277	378.843	-336.329	286.127	386.234	-241.303	519.413	379.466	-237.154	195.322	65.932	-165.054	592.623	74.968	-338.443	197.657	76.595	-224.112	609.436	84.827	-279.140	334.409	1131.079	-222.939	417.837	1083.917	-163.578	408.117	1086.161	-292.665	407.291	1073.735	-230.599	425.523	930.892	-233.575	326.154	456.550	-55.683	571.465	525.249	-346.152	361.656	516.580	-118.168	492.129	551.117	-280.805	355.226	436.089	-144.388	522.999	469.599	-271.694	213.899	163.953	-86.790	637.724	199.214	-363.824	233.299	218.117	-144.590	574.348	234.235	-323.670	292.621	38.023	-199.068	695.886	84.622	-330.598
